<mxfile host="app.diagrams.net" agent="Mozilla/5.0 (X11; Ubuntu; Linux x86_64; rv:137.0) Gecko/20100101 Firefox/137.0" version="26.2.14">
  <diagram name="PÃ¡gina-1" id="hozjiABMJDmleJxzlJYg">
    <mxGraphModel dx="1072" dy="1247" grid="0" gridSize="10" guides="1" tooltips="1" connect="1" arrows="1" fold="1" page="0" pageScale="1" pageWidth="827" pageHeight="1169" math="0" shadow="0">
      <root>
        <mxCell id="0" />
        <mxCell id="1" parent="0" />
        <mxCell id="dnQYJjASEpeFvEGhRSsU-3" value="" style="edgeStyle=none;curved=1;rounded=0;orthogonalLoop=1;jettySize=auto;html=1;fontSize=12;startSize=8;endSize=8;" edge="1" parent="1" source="dnQYJjASEpeFvEGhRSsU-1" target="dnQYJjASEpeFvEGhRSsU-2">
          <mxGeometry relative="1" as="geometry" />
        </mxCell>
        <mxCell id="dnQYJjASEpeFvEGhRSsU-1" value="inicio" style="ellipse;whiteSpace=wrap;html=1;" vertex="1" parent="1">
          <mxGeometry x="163" y="-143" width="120" height="80" as="geometry" />
        </mxCell>
        <mxCell id="dnQYJjASEpeFvEGhRSsU-7" value="" style="edgeStyle=none;curved=1;rounded=0;orthogonalLoop=1;jettySize=auto;html=1;fontSize=12;startSize=8;endSize=8;" edge="1" parent="1" source="dnQYJjASEpeFvEGhRSsU-2" target="dnQYJjASEpeFvEGhRSsU-6">
          <mxGeometry relative="1" as="geometry" />
        </mxCell>
        <mxCell id="dnQYJjASEpeFvEGhRSsU-2" value="ingrese total cuanta" style="shape=parallelogram;perimeter=parallelogramPerimeter;whiteSpace=wrap;html=1;fixedSize=1;" vertex="1" parent="1">
          <mxGeometry x="140.5" y="21" width="165" height="60" as="geometry" />
        </mxCell>
        <mxCell id="dnQYJjASEpeFvEGhRSsU-9" value="" style="edgeStyle=none;curved=1;rounded=0;orthogonalLoop=1;jettySize=auto;html=1;fontSize=12;startSize=8;endSize=8;" edge="1" parent="1" source="dnQYJjASEpeFvEGhRSsU-6" target="dnQYJjASEpeFvEGhRSsU-8">
          <mxGeometry relative="1" as="geometry" />
        </mxCell>
        <mxCell id="dnQYJjASEpeFvEGhRSsU-6" value="ingrese porcentaje de propina 10 ,15, 20 " style="shape=parallelogram;perimeter=parallelogramPerimeter;whiteSpace=wrap;html=1;fixedSize=1;" vertex="1" parent="1">
          <mxGeometry x="122" y="143" width="197" height="68" as="geometry" />
        </mxCell>
        <mxCell id="dnQYJjASEpeFvEGhRSsU-13" value="" style="edgeStyle=none;curved=1;rounded=0;orthogonalLoop=1;jettySize=auto;html=1;fontSize=12;startSize=8;endSize=8;" edge="1" parent="1" source="dnQYJjASEpeFvEGhRSsU-8" target="dnQYJjASEpeFvEGhRSsU-12">
          <mxGeometry relative="1" as="geometry" />
        </mxCell>
        <mxCell id="dnQYJjASEpeFvEGhRSsU-14" value="si" style="edgeLabel;html=1;align=center;verticalAlign=middle;resizable=0;points=[];fontSize=12;" vertex="1" connectable="0" parent="dnQYJjASEpeFvEGhRSsU-13">
          <mxGeometry x="-0.1121" y="-2" relative="1" as="geometry">
            <mxPoint as="offset" />
          </mxGeometry>
        </mxCell>
        <mxCell id="dnQYJjASEpeFvEGhRSsU-16" style="edgeStyle=none;curved=1;rounded=0;orthogonalLoop=1;jettySize=auto;html=1;entryX=1;entryY=0.5;entryDx=0;entryDy=0;fontSize=12;startSize=8;endSize=8;" edge="1" parent="1" source="dnQYJjASEpeFvEGhRSsU-8" target="dnQYJjASEpeFvEGhRSsU-6">
          <mxGeometry relative="1" as="geometry">
            <Array as="points">
              <mxPoint x="474" y="268" />
            </Array>
          </mxGeometry>
        </mxCell>
        <mxCell id="dnQYJjASEpeFvEGhRSsU-17" value="no" style="edgeLabel;html=1;align=center;verticalAlign=middle;resizable=0;points=[];fontSize=12;" vertex="1" connectable="0" parent="dnQYJjASEpeFvEGhRSsU-16">
          <mxGeometry x="-0.444" y="32" relative="1" as="geometry">
            <mxPoint as="offset" />
          </mxGeometry>
        </mxCell>
        <mxCell id="dnQYJjASEpeFvEGhRSsU-8" value="porcentaje de propina esta entre 10,15 o 20" style="rhombus;whiteSpace=wrap;html=1;" vertex="1" parent="1">
          <mxGeometry x="120.25" y="260" width="205.5" height="176" as="geometry" />
        </mxCell>
        <mxCell id="dnQYJjASEpeFvEGhRSsU-19" value="" style="edgeStyle=none;curved=1;rounded=0;orthogonalLoop=1;jettySize=auto;html=1;fontSize=12;startSize=8;endSize=8;" edge="1" parent="1" source="dnQYJjASEpeFvEGhRSsU-12" target="dnQYJjASEpeFvEGhRSsU-18">
          <mxGeometry relative="1" as="geometry" />
        </mxCell>
        <mxCell id="dnQYJjASEpeFvEGhRSsU-12" value="calcule el valor de la propina: cuenta total * porcentaje de propina /100" style="whiteSpace=wrap;html=1;" vertex="1" parent="1">
          <mxGeometry x="-162.5" y="318" width="120" height="60" as="geometry" />
        </mxCell>
        <mxCell id="dnQYJjASEpeFvEGhRSsU-18" value="fin" style="ellipse;whiteSpace=wrap;html=1;" vertex="1" parent="1">
          <mxGeometry x="-142.5" y="488" width="80" height="80" as="geometry" />
        </mxCell>
      </root>
    </mxGraphModel>
  </diagram>
</mxfile>
